# xmcd
#
# Track frame offsets: 
#        150
#        22125
#        38100
#        59325
#        76575
#        92700
#        108825
#        119025
#        136800
#        144675
#        160125
#        167025
#
# Disc length: 2458 seconds
#
# Revision: 0
# Processed by: cddbd v1.5.2PL0 Copyright (c) Steve Scherf et al.
# Submitted via: ExactAudioCopyFreeDBPlugin 1.0
#
DISCID=9c09980c
DTITLE=Iva - Trava Iva od mrtva pravi ziva
DYEAR=2011
DGENRE=Ethnic
TTITLE0=Zelen oraj`
TTITLE1=Zaspo Janko
TTITLE2=Triologija
TTITLE3=Preletese ptice lastavice
TTITLE4=Moj dilbere - our way
TTITLE5=Vrbica
TTITLE6=Devojce, crveno jabolce
TTITLE7=Dobro doso` Hriste
TTITLE8=Moba prela kod kneza Lazara
TTITLE9=Ne placi, Stano mori
TTITLE10=Izlegni Marce
TTITLE11=Zito znjela Kosovka devojka
EXTD=
EXTT0=
EXTT1=
EXTT2=
EXTT3=
EXTT4=
EXTT5=
EXTT6=
EXTT7=
EXTT8=
EXTT9=
EXTT10=
EXTT11=
PLAYORDER=
